<svg width="32" height="32" viewBox="0 0 32 32" fill="none" xmlns="http://www.w3.org/2000/svg"><path d="M2.824 5.82h26.352m0 0a1.23 1.23 0 011.222 1.227m0 0v20.73m0 0c0 .676-.55 1.23-1.222 1.23m0 .001H2.824m0 0a1.231 1.231 0 01-1.222-1.23m0-.001V7.047m0 0c0-.672.55-1.227 1.222-1.227m4.52-2.828v5.004m0 2.614a1.23 1.23 0 001.222-1.227 1.23 1.23 0 00-1.222-1.227c-.676 0-1.227.555-1.227 1.227s.551 1.226 1.227 1.226zM24.66 2.992v5.164m0 2.454a1.227 1.227 0 000-2.454c-.676 0-1.226.555-1.226 1.227s.55 1.226 1.226 1.226zM4.816 13.617h22.371M5.496 16.734h1.086m0 0a.68.68 0 01.68.68m0 0V18.5m0 0a.684.684 0 01-.68.684m0 0H5.496m0 0a.684.684 0 01-.68-.684m0 0v-1.086m0 0a.68.68 0 01.68-.68m12.891 0h1.086m0 0a.68.68 0 01.68.68m-.001 0V18.5m0 0a.683.683 0 01-.68.684m.001 0h-1.086m0 0a.687.687 0 01-.684-.684m0 0v-1.086m0 0c0-.375.309-.68.684-.68m6.445 0h1.086m0 0a.68.68 0 01.68.68m0 0V18.5m0 0a.684.684 0 01-.68.684m0 0h-1.086m0 0a.684.684 0 01-.68-.684m0 0v-1.086m0 0a.68.68 0 01.68-.68M5.496 23.027h1.086m0 0a.68.68 0 01.68.68m0 0v1.09m0 0c0 .371-.305.68-.68.68m0 0H5.496m0 0a.683.683 0 01-.68-.68m0 0v-1.09m0 0a.68.68 0 01.68-.68m6.445 0h1.086m0 0a.68.68 0 01.68.68m0 0v1.09m0 0c0 .371-.305.68-.68.68m0 0h-1.086m0 0a.686.686 0 01-.683-.68m0 0v-1.09m0 0c0-.375.308-.68.683-.68m6.446 0h1.086m0 0a.68.68 0 01.68.68m-.001 0v1.09m0 0c0 .371-.304.68-.68.68m.001 0h-1.086m0 0a.686.686 0 01-.684-.68m0 0v-1.09m0 0c0-.375.309-.68.684-.68m-6.871-5.246l.906.832m1.664-1.816l-1.664 1.816m12.168 5.461l.906.828m1.664-1.812l-1.664 1.812" stroke="#333" stroke-miterlimit="2.613" stroke-linecap="round" stroke-linejoin="round"/></svg>