<svg width="32" height="32" viewBox="0 0 32 32" fill="none" xmlns="http://www.w3.org/2000/svg"><path d="M24 14.78l-4.491 7.15m0 0c-.568.896-1.224 1.833-2.14 2.36m.001 0l-6.167 3.574m0 0c-2.351 1.333-3.445.78-3.158-2.228m0 0l.629-6.781m0 0c.102-1.094.526-2.03.95-2.7m0-.001L17.458 4m-4.826 14.178c.615-.889 1.866-1.128 2.83-.54.998.601 1.326 1.852.731 2.796m.041-.028c.486-.704 1.477-.902 2.25-.43.792.478 1.052 1.476.58 2.228M9.7 16.462c.491-.718 1.496-.91 2.269-.438.8.486 1.066 1.49.594 2.243M8.298 22.86a9.35 9.35 0 013.13 1.183 9.19 9.19 0 012.23 1.914" stroke="#fff" stroke-miterlimit="2.613" stroke-linecap="round" stroke-linejoin="round"/></svg>