<svg width="32" height="32" viewBox="0 0 32 32" fill="none" xmlns="http://www.w3.org/2000/svg"><path d="M23.262 5.293h2.152m0 0c.766 0 1.387.629 1.387 1.402m-.001 0v22.301m0 0c0 .774-.62 1.402-1.386 1.402m0 0H6.586m0 0a1.395 1.395 0 01-1.387-1.402m.001 0v-22.3m0-.001c0-.773.62-1.402 1.386-1.402m0 0H8.44m13.501-2.055h-3.574v-.304m0 0c0-.739-.59-1.332-1.316-1.332m-.001 0h-2.097m0 0c-.726 0-1.32.593-1.32 1.332m0 0v.304h-3.574m0 0a1.33 1.33 0 00-1.317 1.34m0 0v2.836h14.52V4.578m0 0c0-.738-.59-1.34-1.32-1.34M8.805 14.156l1.191 1.106m2.192-2.418l-2.192 2.418m4.27-.962h8.93m-8.93 10.825h8.93m-8.93-5.332h8.93" stroke="#fff" stroke-miterlimit="2.613" stroke-linecap="round" stroke-linejoin="round"/></svg>