<svg width="32" height="32" viewBox="0 0 32 32" fill="none" xmlns="http://www.w3.org/2000/svg"><path d="M12.89 26.594H28.8M12.89 16H28.8M12.89 5.406H28.8M8.305 7.586a.374.374 0 01-.375.371m0 0H3.57m0 0a.373.373 0 01-.37-.371m0 0v-4.36m0 .001c0-.204.167-.372.37-.372m0 0h4.36m0 0c.207 0 .375.168.375.375m0-.003v4.359m0 10.594a.372.372 0 01-.375.37m0 0H3.57m0 0a.371.371 0 01-.37-.37m0 0v-4.356m0 0c0-.207.167-.375.37-.375m0 .001h4.36m0 0c.207 0 .375.167.375.374m0 0v4.356m0 10.593a.37.37 0 01-.375.372m0 0H3.57m0 0a.368.368 0 01-.37-.372m0 0v-4.355m0 0c0-.207.167-.375.37-.375m0 0h4.36m0 0c.207 0 .375.168.375.375m0 0v4.355" stroke="#fff" stroke-miterlimit="2.613" stroke-linecap="round" stroke-linejoin="round"/></svg>