<svg width="32" height="32" viewBox="0 0 32 32" fill="none" xmlns="http://www.w3.org/2000/svg"><path d="M6.504 8.598l1.215 18.984m0 0a1.22 1.22 0 001.218 1.219m.001-.001h14.128m0 0a1.22 1.22 0 001.215-1.218m0 0l1.215-18.984H6.504M27.7 7.422c0 .644-.524 1.168-1.165 1.168m0 0H5.465m0 0c-.64 0-1.164-.524-1.164-1.168m-.001 0c0-.64.524-1.164 1.165-1.164m0 0h21.07m0 0c.64 0 1.164.523 1.164 1.164m-8.027-1.184V4.414m0 0c0-.668-.543-1.215-1.215-1.215m0 .001h-4.914m0 0c-.672 0-1.215.546-1.215 1.214m0 0v1.824h7.344m-9.027 4.789v14.961m3.57-14.961v14.961m3.575-14.961v14.961m3.565-14.961v14.961" stroke="#333" stroke-miterlimit="2.613" stroke-linecap="round" stroke-linejoin="round"/></svg>