<svg width="32" height="32" viewBox="0 0 32 32" fill="none" xmlns="http://www.w3.org/2000/svg"><path d="M28 19.473l-2.566 4.086m0 0c-.325.511-.7 1.046-1.223 1.347m-.001 0l-3.523 2.043m.001.001c-1.344.76-1.97.445-1.805-1.274m0 0l.36-3.875m-.001-.001c.059-.624.301-1.16.543-1.542m0 0l4.477-6.945m-2.758 8.101c.351-.508 1.066-.645 1.617-.309.57.344.758 1.059.418 1.598m.024-.015c.277-.403.843-.516 1.285-.247.453.274.601.844.332 1.274m-5.352-3.281c.281-.41.856-.52 1.297-.25.457.277.61.851.34 1.28m-2.438 2.626a5.345 5.345 0 011.79.676c.48.293.91.664 1.273 1.093m5.7-1.511v4.242m0 0c0 .992-.837 1.808-1.849 1.808m0 0H5.84m0 0c-1.008 0-1.84-.812-1.84-1.808m0 0V8.844l7.973-7.242H25.94m.001 0c1.016 0 1.848.816 1.848 1.808m.001 0v13.172M12.336 1.602v6.68m0-.001a.981.981 0 01-.98.969m-.001 0H4m13.14-4.578h6.97m0 0c.238 0 .433.21.433.469m0-.001v3.97m0 0c0 .257-.195.468-.434.468m.001 0h-6.97m0 0c-.242 0-.433-.21-.433-.469m0 .001V5.14m0 0c0-.257.191-.468.434-.468M6.91 13.79h13.695M6.91 20.234h9.223M6.91 26.68h9.223" stroke="#fff" stroke-miterlimit="2.613" stroke-linecap="round" stroke-linejoin="round"/></svg>