<svg width="32" height="32" viewBox="0 0 32 32" fill="none" xmlns="http://www.w3.org/2000/svg"><path d="M2 24.762h25.05v1.93m0-.001a.83.83 0 01-.823.829m0 0H2.66m0 0a.666.666 0 01-.66-.665m0 0v-2.093m7.781-13.129H4.215m0 0a.744.744 0 00-.742.738m0 0v12.39h22.105v-4.558m-7.125-8.57h-5.02m11.544 0h-4.461m5.062 6.234v-4.086M3.215 26.14h8.12" stroke="#fff" stroke-miterlimit="2.613" stroke-linecap="round" stroke-linejoin="round"/><path d="M23 26.316a.178.178 0 00.176-.175.175.175 0 00-.176-.176.175.175 0 00-.176.176c0 .093.078.175.176.175zm1.313 0a.178.178 0 00.175-.175.175.175 0 00-.175-.176.175.175 0 00-.176.176c0 .093.078.175.175.175zm1.203 0a.178.178 0 00.175-.175.175.175 0 00-.175-.176.178.178 0 00-.176.176.18.18 0 00.176.175zm-4.094-8.281a2.922 2.922 0 01-2.918 2.922 2.92 2.92 0 01-2.918-2.922 2.918 2.918 0 015.836 0zm-.891-11.523a2.026 2.026 0 01-2.027 2.027 2.029 2.029 0 010-4.059c1.121 0 2.027.91 2.027 2.032zm10.266 11.523a2.029 2.029 0 01-2.027 2.031 2.029 2.029 0 010-4.058c1.12 0 2.027.91 2.027 2.027zm-1.891-8.812a1.361 1.361 0 11-2.723-.004 1.361 1.361 0 012.723.004zM8.125 8.906a1.362 1.362 0 11-2.724.003 1.362 1.362 0 012.724-.003zm12.765 7.352l5.758-5.988m-8.144 4.761V8.59m2.918 9.445h5.32M7.793 9.832l8.266 6.477" stroke="#fff" stroke-miterlimit="2.613" stroke-linecap="round" stroke-linejoin="round"/></svg>