<svg width="32" height="32" viewBox="0 0 32 32" fill="none" xmlns="http://www.w3.org/2000/svg"><path d="M26.207 23.504c0 1.11-.898 2.008-2.008 2.008m.001 0H7.8m0 0a2.007 2.007 0 01-2.007-2.008m0 0c0-1.11.898-2.008 2.008-2.008m-.001 0h16.4m0 0c1.109 0 2.007.899 2.007 2.008m-3.105-11.949c0-5.727-3.497-8.38-7.07-8.352m-.001 0V3.2m0 0c-.011 0-.02.003-.031.003-.012 0-.023-.004-.031-.004m0 .001v.003m0 0c-3.574-.027-7.07 2.625-7.07 8.352.19 7.71-.989 9.941-.989 9.941m0 0h16.18m0 0s-1.18-2.23-.988-9.941m-9.168 14.023a2.25 2.25 0 00-.211.945 2.277 2.277 0 104.554 0c0-.34-.078-.656-.21-.945m-.001 0h-4.132" stroke="#2487E2" stroke-miterlimit="2.613" stroke-linecap="round" stroke-linejoin="round"/></svg>