<svg width="32" height="32" viewBox="0 0 32 32" fill="none" xmlns="http://www.w3.org/2000/svg"><path d="M13.27 12.535c0 .34-.278.617-.618.617m0 0H5.418m0 0a.618.618 0 01-.617-.617m-.001 0v-7.23m0 0a.62.62 0 01.618-.621m0 0h7.234m0 0a.62.62 0 01.618.62m0 .001v7.23m0 14.165a.616.616 0 01-.618.616m0 0H5.418m0 0a.616.616 0 01-.617-.617M4.8 26.7v-7.227m0 0a.62.62 0 01.618-.621m0 0h7.234m0 0a.62.62 0 01.618.62m0 .001v7.226M27.2 12.535c0 .34-.274.617-.618.617m0 0h-7.234m0 0a.618.618 0 01-.617-.617m-.001 0v-7.23m0 0a.62.62 0 01.618-.621m0 0h7.234m0 0a.62.62 0 01.617.62m.001.001v7.23m0 14.165a.613.613 0 01-.618.616m0 0h-7.234m0 0a.616.616 0 01-.617-.617m-.001.001v-7.227m0 0a.62.62 0 01.618-.621m0 0h7.234m0 0a.62.62 0 01.617.62m.001.001v7.226" stroke="#fff" stroke-miterlimit="2.613" stroke-linecap="round" stroke-linejoin="round"/></svg>