<svg width="32" height="32" viewBox="0 0 32 32" fill="none" xmlns="http://www.w3.org/2000/svg"><path d="M30.027 7.648l-1.082-.183a4.7 4.7 0 00-.336-1.48l.895-.633c.191-.137.27-.352.18-.48l-.907-1.278c-.09-.13-.32-.125-.511.011l-.895.633a4.692 4.692 0 00-1.285-.804l.184-1.082c.039-.23-.055-.438-.211-.465l-1.543-.262c-.157-.027-.317.137-.356.367l-.183 1.082a4.75 4.75 0 00-1.48.336l-.634-.894c-.136-.188-.351-.27-.48-.176l-1.274.902c-.132.094-.125.324.008.512l.633.898a4.615 4.615 0 00-.805 1.282l-1.082-.184c-.23-.04-.437.059-.465.215l-.261 1.539c-.028.156.14.316.37.355l1.079.184c.031.516.148 1.016.336 1.48l-.89.637c-.192.133-.274.348-.18.477l.906 1.277c.09.129.32.125.512-.012l.894-.632a4.68 4.68 0 001.285.808l-.187 1.078c-.035.23.058.438.215.465l1.543.262c.156.027.316-.137.355-.367l.18-1.082a4.601 4.601 0 001.48-.34l.637.898c.133.188.348.27.476.176l1.278-.902c.129-.094.125-.325-.012-.516l-.633-.89c.332-.38.61-.81.809-1.286l1.082.184c.23.039.437-.059.465-.215L30.398 8c.024-.156-.14-.313-.37-.352zm-6.28 3.16a3.098 3.098 0 111.044-6.106 3.098 3.098 0 01-1.045 6.107zm-13.88.602c-.308.067-.613.149-.91.242l-.234-.402a.849.849 0 00-1.16-.313l-1.778 1.028a.854.854 0 00-.312 1.164l.23.406c-.23.207-.453.43-.664.664l-.406-.234a.853.853 0 00-1.16.308l-1.028 1.782a.857.857 0 00.309 1.164l.406.23a8.91 8.91 0 00-.242.91h-.469a.852.852 0 00-.847.848v2.059a.85.85 0 00.847.847h.469c.066.309.148.614.242.91l-.402.235a.849.849 0 00-.313 1.16l1.028 1.777a.854.854 0 001.164.313l.402-.235c.211.235.434.457.664.665l-.23.406a.854.854 0 00.312 1.164l1.777 1.027a.85.85 0 001.16-.312l.235-.403c.297.098.602.176.91.242v.465c0 .47.383.852.852.852h2.054a.854.854 0 00.852-.852v-.465c.309-.066.61-.148.906-.242l.235.403a.85.85 0 001.16.312l1.781-1.027a.858.858 0 00.313-1.164l-.235-.407c.23-.207.453-.43.66-.66l.407.235c.406.23.93.093 1.164-.313l1.027-1.781a.85.85 0 00-.313-1.16l-.402-.235c.094-.296.176-.601.242-.91h.47a.853.853 0 00.847-.851v-2.055a.855.855 0 00-.848-.852h-.469a9.952 9.952 0 00-.242-.906l.402-.234a.85.85 0 00.313-1.16l-1.027-1.782a.857.857 0 00-1.164-.308l-.403.234a8.87 8.87 0 00-.664-.664l.235-.406a.858.858 0 00-.313-1.164l-1.781-1.027a.849.849 0 00-1.16.312l-.235.402a8.924 8.924 0 00-.91-.242v-.469a.853.853 0 00-.851-.847h-2.051a.853.853 0 00-.852.847v.47zm1.875 14.942a6.116 6.116 0 11.005-12.232 6.116 6.116 0 01-.005 12.232z" stroke="#fff" stroke-miterlimit="2.613" stroke-linecap="round" stroke-linejoin="round"/></svg>