<svg width="32" height="32" viewBox="0 0 32 32" fill="none" xmlns="http://www.w3.org/2000/svg"><path d="M21.559 3.469h6.39m.001 0c.464 0 .843.379.843.84m0 0v11.726m0 0a.848.848 0 01-.844.844m.001 0h-.505M17.91 9.676V6.84l3.649-3.371m.171 0v3.035m0 0c0 .246-.207.45-.453.45m0-.001H17.91m3.871 10.754V12.25m0 13.012v-.395.395zm0-1.723v-.617.617zm0-1.945v-.617.617zm0-1.942v-.617.617zm0-7.402l-2.375 2.375m2.375-2.375l2.598 2.602" stroke="#fff" stroke-miterlimit="2.613" stroke-linecap="round" stroke-linejoin="round"/><path d="M2.832 9.676h.965L3.73 8.94a.813.813 0 01.82-.898h6.782c.496 0 .938.406.984.898l.067.735H25.44a1.51 1.51 0 011.473 1.347l1.465 16.16a1.214 1.214 0 01-1.227 1.348H4.543a1.512 1.512 0 01-1.473-1.347l-1.465-16.16a1.214 1.214 0 011.227-1.348z" stroke="#fff" stroke-miterlimit="2.613" stroke-linecap="round" stroke-linejoin="round"/><path d="M28.793 12.156h.57c.645 0 1.11.528 1.028 1.172L28.648 27.36c-.082.645-.671 1.172-1.32 1.172" stroke="#fff" stroke-miterlimit="2.613" stroke-linecap="round" stroke-linejoin="round"/></svg>