<svg width="38" height="38" viewBox="0 0 38 38" fill="none" xmlns="http://www.w3.org/2000/svg"><path fill-rule="evenodd" clip-rule="evenodd" d="M21.884 35.739c-5.17.92-10.203-.645-13.884-3.841a26.245 26.245 0 0013.038 1.15l.354-.059c.269-.046.531-.105.794-.164C28.924 31.22 33.452 24.88 32.836 18c.498 4.46-.152 8.82-1.726 12.76a16.666 16.666 0 01-9.226 4.979z" fill="#fff"/><path fill-rule="evenodd" clip-rule="evenodd" d="M18.823 10A39.663 39.663 0 0028 26h-3.67A42.656 42.656 0 0116 10h2.823z" fill="#fff"/><path fill-rule="evenodd" clip-rule="evenodd" d="M22 10a42.616 42.616 0 01-8.326 16H10a39.68 39.68 0 009.163-16H22z" fill="#fff"/><path fill-rule="evenodd" clip-rule="evenodd" d="M28 22.48C25.315 24.084 22.256 25 19 25c-3.25 0-6.315-.91-9-2.52V19c2.603 1.854 5.688 2.928 9 2.928 3.306 0 6.39-1.074 9-2.928v3.48z" fill="#fff"/><path fill-rule="evenodd" clip-rule="evenodd" d="M6.697 7.144c.045-.046.09-.098.136-.144a2.915 2.915 0 01-.136.144zm1.021 24.26a16.644 16.644 0 01-5.46-9.692A16.744 16.744 0 016.547 7.308l-.013.013a26.387 26.387 0 00-1.712 12.707c.04.4.085.8.157 1.2 1.314 7.45 8.284 12.45 15.67 11.324l.351-.06c-4.477.97-8.902.518-13.282-1.087z" fill="#fff"/><path fill-rule="evenodd" clip-rule="evenodd" d="M16.116 2.261c5.17-.92 10.203.645 13.884 3.842a26.244 26.244 0 00-13.038-1.151l-.354.059C9.436 6.287 4.522 12.857 5.165 20A26.37 26.37 0 016.89 7.247a16.59 16.59 0 019.226-4.986z" fill="#fff"/><path fill-rule="evenodd" clip-rule="evenodd" d="M31.303 30.856c-.045.046-.09.098-.136.144.045-.052.09-.098.136-.144zM30.282 6.598a16.641 16.641 0 015.46 9.691 16.74 16.74 0 01-4.289 14.403l.013-.013a26.38 26.38 0 001.712-12.706c-.033-.4-.085-.8-.157-1.199-1.314-7.45-8.284-12.45-15.67-11.323l-.351.06c4.484-.977 8.909-.518 13.282 1.087z" fill="#fff"/></svg>