<svg width="22" height="21" viewBox="0 0 22 21" fill="none" xmlns="http://www.w3.org/2000/svg"><g clip-path="url(#clip0)"><path fill="#FC0" d="M2.563.875h17.313v18.688H2.563z"/><path d="M2.2.7V0a.751.751 0 00-.518.205.684.684 0 00-.215.495H2.2zm17.6 0h.733a.684.684 0 00-.214-.495A.752.752 0 0019.8 0v.7zm0 19.6l-.328.626a.762.762 0 00.713-.03.716.716 0 00.256-.255.675.675 0 00.093-.341H19.8zm-2.933-1.4l.328-.626a.761.761 0 00-.657 0l.329.626zm-2.934 1.4l-.328.626a.762.762 0 00.657 0l-.329-.626zM11 18.9l.329-.626a.762.762 0 00-.657 0L11 18.9zm-2.933 1.4l-.329.626a.762.762 0 00.657 0l-.328-.626zm-5.867 0h-.733c0 .12.032.237.093.341.06.104.148.192.255.255a.759.759 0 00.714.03L2.2 20.3zm2.933-1.4l.329-.626a.762.762 0 00-.657 0l.328.626zM2.2 1.4h17.6V0H2.2v1.4zM19.067.7v19.6h1.466V.7h-1.466zm1.062 18.974l-2.934-1.4-.657 1.252 2.934 1.4.657-1.252zm-3.59-1.4l-2.934 1.4.657 1.252 2.933-1.4-.657-1.252zm-2.277 1.4l-2.933-1.4-.657 1.252 2.933 1.4.657-1.252zm-3.59-1.4l-2.934 1.4.657 1.252 2.934-1.4-.657-1.252zM2.933 20.3V.7H1.467v19.6h1.466zm5.462-.626l-2.933-1.4-.657 1.252 2.933 1.4.657-1.252zm-3.59-1.4l-2.933 1.4.657 1.252 2.933-1.4-.657-1.252zM5.867 7H8.8V5.6H5.867V7zm5.866 0h4.4V5.6h-4.4V7zm-5.866 4.2H8.8V9.8H5.867v1.4zm5.866 0h4.4V9.8h-4.4v1.4zm0 4.2h4.4V14h-4.4v1.4z" fill="#4A4A4A"/></g><defs><clipPath id="clip0"><path fill="#fff" d="M0 0h22v21H0z"/></clipPath></defs></svg>