<svg width="32" height="32" viewBox="0 0 32 32" fill="none" xmlns="http://www.w3.org/2000/svg"><path d="M27.999 21.921V8.276a1.625 1.625 0 00-1.637-1.626H5.64a1.626 1.626 0 00-1.626 1.626V21.92a1.81 1.81 0 00.878 3.403H27.11a1.81 1.81 0 00.889-3.403zM5.098 8.276a.542.542 0 01.542-.542h20.722a.542.542 0 01.542.542v13.417H5.098V8.276zM27.11 24.24h-8.67a.531.531 0 00.068-.816.542.542 0 00-.383-.159H13.79a.542.542 0 00-.481.787.53.53 0 00.167.188H4.805a.736.736 0 01-.308-1.435c.1-.03.204-.04.308-.028H27.11a.736.736 0 01.578 1.284.737.737 0 01-.578.18z" fill="#222"/></svg>