<svg width="38" height="38" viewBox="0 0 38 38" fill="none" xmlns="http://www.w3.org/2000/svg">
<path fill-rule="evenodd" clip-rule="evenodd" d="M21.8841 35.7385C16.7136 36.6593 11.681 35.094 7.99997 31.8975C12.055 33.3313 16.5102 33.7917 21.0376 33.0485C21.1557 33.0287 21.2739 33.009 21.392 32.9893C21.661 32.9432 21.9234 32.884 22.1859 32.8249C28.9245 31.22 33.452 24.8797 32.8352 18C33.3339 22.4593 32.6843 26.8199 31.1095 30.7596C28.7277 33.2787 25.5519 35.0874 21.8841 35.7385Z" fill="white"/>
<path fill-rule="evenodd" clip-rule="evenodd" d="M18.8235 10C20.6203 16.0902 23.8032 21.5515 28 26H24.3294C20.5176 21.4125 17.6364 15.9777 16 10H18.8235Z" fill="white"/>
<path fill-rule="evenodd" clip-rule="evenodd" d="M22 10C20.3657 15.971 17.4895 21.4125 13.674 26H10C14.1887 21.5515 17.3737 16.0836 19.1625 10H22Z" fill="white"/>
<path fill-rule="evenodd" clip-rule="evenodd" d="M28 22.4797C25.3146 24.0835 22.2555 25 19 25C15.7509 25 12.6854 24.0907 10 22.4797V19C12.6031 20.8544 15.6875 21.9284 19 21.9284C22.3061 21.9284 25.3906 20.8544 28 19V22.4797Z" fill="white"/>
<path fill-rule="evenodd" clip-rule="evenodd" d="M6.69664 7.14424C6.7422 7.09836 6.78775 7.04593 6.8333 7.00006C6.78775 7.05249 6.7422 7.09836 6.69664 7.14424ZM7.71831 31.4049C4.94614 28.9867 2.94836 25.6313 2.25857 21.7124C1.30197 16.2928 3.05898 11.0173 6.54697 7.30807L6.53396 7.32119C4.97217 11.2401 4.32793 15.585 4.8225 20.0282C4.86154 20.4279 4.9071 20.8277 4.97868 21.2275C6.29318 28.6787 13.2627 33.6789 20.6486 32.5517C20.7657 32.532 20.8829 32.5124 21 32.4927C16.5229 33.4626 12.0978 33.0104 7.71831 31.4049Z" fill="white"/>
<path fill-rule="evenodd" clip-rule="evenodd" d="M16.1159 2.26148C21.2864 1.34069 26.319 2.90604 30 6.10253C25.945 4.66871 21.4898 4.20831 16.9623 4.95153C16.8442 4.97126 16.7261 4.99099 16.608 5.01072C9.43631 6.28669 4.52176 12.8572 5.16478 20C4.66611 15.5407 5.3157 11.1801 6.89045 7.24695C9.26571 4.72133 12.4415 2.91262 16.1159 2.26148Z" fill="white"/>
<path fill-rule="evenodd" clip-rule="evenodd" d="M31.3034 30.8558C31.2578 30.9017 31.2123 30.9541 31.1667 31C31.2123 30.9476 31.2578 30.9017 31.3034 30.8558ZM30.2817 6.59792C33.0539 9.01585 35.0516 12.3708 35.7414 16.2893C36.698 21.7083 34.941 26.9832 31.453 30.692L31.466 30.6789C33.0278 26.7604 33.6721 22.416 33.1775 17.9733C33.145 17.5736 33.0929 17.1739 33.0213 16.7742C31.7068 9.32383 24.7373 4.32415 17.3514 5.45121C17.2343 5.47086 17.1171 5.49052 17 5.51018C21.4836 4.53383 25.9087 4.99252 30.2817 6.59792Z" fill="white"/>
</svg>
