<svg width="22" height="21" viewBox="0 0 22 21" fill="none" xmlns="http://www.w3.org/2000/svg">
<g clip-path="url(#clip0)">
<rect x="2.5625" y="0.875" width="17.3125" height="18.6875" fill="#FFCC00"/>
<path d="M2.20013 0.7V0C2.00564 0 1.81911 0.0737498 1.68159 0.205025C1.54406 0.336301 1.4668 0.514349 1.4668 0.7H2.20013ZM19.8001 0.7H20.5335C20.5335 0.514349 20.4562 0.336301 20.3187 0.205025C20.1811 0.0737498 19.9946 0 19.8001 0V0.7ZM19.8001 20.3L19.4716 20.9258C19.5834 20.9793 19.7077 21.0046 19.8326 20.9993C19.9575 20.994 20.079 20.9583 20.1854 20.8956C20.2918 20.8329 20.3796 20.7452 20.4406 20.641C20.5015 20.5368 20.5335 20.4194 20.5335 20.3H19.8001ZM16.8668 18.9L17.1953 18.2742C17.0934 18.2254 16.9809 18.2 16.8668 18.2C16.7527 18.2 16.6402 18.2254 16.5383 18.2742L16.8668 18.9ZM13.9335 20.3L13.6049 20.9258C13.7069 20.9746 13.8194 21 13.9335 21C14.0475 21 14.16 20.9746 14.262 20.9258L13.9335 20.3ZM11.0001 18.9L11.3287 18.2742C11.2267 18.2254 11.1142 18.2 11.0001 18.2C10.8861 18.2 10.7736 18.2254 10.6716 18.2742L11.0001 18.9ZM8.0668 20.3L7.73826 20.9258C7.84024 20.9746 7.95273 21 8.0668 21C8.18086 21 8.29335 20.9746 8.39533 20.9258L8.0668 20.3ZM2.20013 20.3H1.4668C1.4668 20.4194 1.49878 20.5368 1.55971 20.641C1.62063 20.7452 1.70847 20.8329 1.81488 20.8956C1.92129 20.9583 2.04273 20.994 2.16766 20.9993C2.29259 21.0046 2.41686 20.9793 2.52866 20.9258L2.20013 20.3ZM5.13346 18.9L5.462 18.2742C5.36002 18.2254 5.24753 18.2 5.13346 18.2C5.0194 18.2 4.90691 18.2254 4.80493 18.2742L5.13346 18.9ZM2.20013 1.4H19.8001V0L2.20013 0V1.4ZM19.0668 0.7V20.3H20.5335V0.7H19.0668ZM20.1287 19.6742L17.1953 18.2742L16.5383 19.5258L19.4716 20.9258L20.1287 19.6742ZM16.5383 18.2742L13.6049 19.6742L14.262 20.9258L17.1953 19.5258L16.5383 18.2742ZM14.262 19.6742L11.3287 18.2742L10.6716 19.5258L13.6049 20.9258L14.262 19.6742ZM10.6716 18.2742L7.73826 19.6742L8.39533 20.9258L11.3287 19.5258L10.6716 18.2742ZM2.93346 20.3V0.7H1.4668V20.3H2.93346ZM8.39533 19.6742L5.462 18.2742L4.80493 19.5258L7.73826 20.9258L8.39533 19.6742ZM4.80493 18.2742L1.8716 19.6742L2.52866 20.9258L5.462 19.5258L4.80493 18.2742ZM5.8668 7H8.80013V5.6H5.8668V7ZM11.7335 7H16.1335V5.6H11.7335V7ZM5.8668 11.2H8.80013V9.8H5.8668V11.2ZM11.7335 11.2H16.1335V9.8H11.7335V11.2ZM11.7335 15.4H16.1335V14H11.7335V15.4Z" fill="#4A4A4A"/>
</g>
<defs>
<clipPath id="clip0">
<rect width="22" height="21" fill="white"/>
</clipPath>
</defs>
</svg>
