<svg width="32" height="32" viewBox="0 0 32 32" fill="none" xmlns="http://www.w3.org/2000/svg">
<path d="M2.82422 5.82031H29.1758" stroke="#333333" stroke-miterlimit="2.6131" stroke-linecap="round" stroke-linejoin="round"/>
<path d="M29.1758 5.82031C29.8477 5.82031 30.3984 6.375 30.3984 7.04688" stroke="#333333" stroke-miterlimit="2.6131" stroke-linecap="round" stroke-linejoin="round"/>
<path d="M30.3984 7.04688V27.7773" stroke="#333333" stroke-miterlimit="2.6131" stroke-linecap="round" stroke-linejoin="round"/>
<path d="M30.3984 27.7773C30.3984 28.4531 29.8477 29.0078 29.1758 29.0078" stroke="#333333" stroke-miterlimit="2.6131" stroke-linecap="round" stroke-linejoin="round"/>
<path d="M29.1758 29.0078H2.82422" stroke="#333333" stroke-miterlimit="2.6131" stroke-linecap="round" stroke-linejoin="round"/>
<path d="M2.82422 29.0078C2.15234 29.0078 1.60156 28.4531 1.60156 27.7773" stroke="#333333" stroke-miterlimit="2.6131" stroke-linecap="round" stroke-linejoin="round"/>
<path d="M1.60156 27.7773V7.04688" stroke="#333333" stroke-miterlimit="2.6131" stroke-linecap="round" stroke-linejoin="round"/>
<path d="M1.60156 7.04688C1.60156 6.375 2.15234 5.82031 2.82422 5.82031" stroke="#333333" stroke-miterlimit="2.6131" stroke-linecap="round" stroke-linejoin="round"/>
<path d="M7.34375 2.99219V7.99609" stroke="#333333" stroke-miterlimit="2.6131" stroke-linecap="round" stroke-linejoin="round"/>
<path d="M7.34375 10.6094C8.01563 10.6094 8.56641 10.0547 8.56641 9.38281C8.56641 8.71094 8.01563 8.15625 7.34375 8.15625C6.66797 8.15625 6.11719 8.71094 6.11719 9.38281C6.11719 10.0547 6.66797 10.6094 7.34375 10.6094Z" stroke="#333333" stroke-miterlimit="2.6131" stroke-linecap="round" stroke-linejoin="round"/>
<path d="M24.6602 2.99219V8.15625" stroke="#333333" stroke-miterlimit="2.6131" stroke-linecap="round" stroke-linejoin="round"/>
<path d="M24.6602 10.6094C25.332 10.6094 25.8789 10.0547 25.8789 9.38281C25.8789 8.71094 25.332 8.15625 24.6602 8.15625C23.9844 8.15625 23.4336 8.71094 23.4336 9.38281C23.4336 10.0547 23.9844 10.6094 24.6602 10.6094Z" stroke="#333333" stroke-miterlimit="2.6131" stroke-linecap="round" stroke-linejoin="round"/>
<path d="M4.81641 13.6172H27.1875" stroke="#333333" stroke-miterlimit="2.6131" stroke-linecap="round" stroke-linejoin="round"/>
<path d="M5.49609 16.7344H6.58203" stroke="#333333" stroke-miterlimit="2.6131" stroke-linecap="round" stroke-linejoin="round"/>
<path d="M6.58203 16.7344C6.95703 16.7344 7.26172 17.0391 7.26172 17.4141" stroke="#333333" stroke-miterlimit="2.6131" stroke-linecap="round" stroke-linejoin="round"/>
<path d="M7.26172 17.4141V18.5" stroke="#333333" stroke-miterlimit="2.6131" stroke-linecap="round" stroke-linejoin="round"/>
<path d="M7.26172 18.5C7.26172 18.875 6.95703 19.1836 6.58203 19.1836" stroke="#333333" stroke-miterlimit="2.6131" stroke-linecap="round" stroke-linejoin="round"/>
<path d="M6.58203 19.1836H5.49609" stroke="#333333" stroke-miterlimit="2.6131" stroke-linecap="round" stroke-linejoin="round"/>
<path d="M5.49609 19.1836C5.12109 19.1836 4.81641 18.875 4.81641 18.5" stroke="#333333" stroke-miterlimit="2.6131" stroke-linecap="round" stroke-linejoin="round"/>
<path d="M4.81641 18.5V17.4141" stroke="#333333" stroke-miterlimit="2.6131" stroke-linecap="round" stroke-linejoin="round"/>
<path d="M4.81641 17.4141C4.81641 17.0391 5.12109 16.7344 5.49609 16.7344" stroke="#333333" stroke-miterlimit="2.6131" stroke-linecap="round" stroke-linejoin="round"/>
<path d="M18.3867 16.7344H19.4727" stroke="#333333" stroke-miterlimit="2.6131" stroke-linecap="round" stroke-linejoin="round"/>
<path d="M19.4727 16.7344C19.8477 16.7344 20.1523 17.0391 20.1523 17.4141" stroke="#333333" stroke-miterlimit="2.6131" stroke-linecap="round" stroke-linejoin="round"/>
<path d="M20.1523 17.4141V18.5" stroke="#333333" stroke-miterlimit="2.6131" stroke-linecap="round" stroke-linejoin="round"/>
<path d="M20.1523 18.5C20.1523 18.875 19.8477 19.1836 19.4727 19.1836" stroke="#333333" stroke-miterlimit="2.6131" stroke-linecap="round" stroke-linejoin="round"/>
<path d="M19.4727 19.1836H18.3867" stroke="#333333" stroke-miterlimit="2.6131" stroke-linecap="round" stroke-linejoin="round"/>
<path d="M18.3867 19.1836C18.0117 19.1836 17.7031 18.875 17.7031 18.5" stroke="#333333" stroke-miterlimit="2.6131" stroke-linecap="round" stroke-linejoin="round"/>
<path d="M17.7031 18.5V17.4141" stroke="#333333" stroke-miterlimit="2.6131" stroke-linecap="round" stroke-linejoin="round"/>
<path d="M17.7031 17.4141C17.7031 17.0391 18.0117 16.7344 18.3867 16.7344" stroke="#333333" stroke-miterlimit="2.6131" stroke-linecap="round" stroke-linejoin="round"/>
<path d="M24.832 16.7344H25.918" stroke="#333333" stroke-miterlimit="2.6131" stroke-linecap="round" stroke-linejoin="round"/>
<path d="M25.918 16.7344C26.293 16.7344 26.5977 17.0391 26.5977 17.4141" stroke="#333333" stroke-miterlimit="2.6131" stroke-linecap="round" stroke-linejoin="round"/>
<path d="M26.5977 17.4141V18.5" stroke="#333333" stroke-miterlimit="2.6131" stroke-linecap="round" stroke-linejoin="round"/>
<path d="M26.5977 18.5C26.5977 18.875 26.293 19.1836 25.918 19.1836" stroke="#333333" stroke-miterlimit="2.6131" stroke-linecap="round" stroke-linejoin="round"/>
<path d="M25.918 19.1836H24.832" stroke="#333333" stroke-miterlimit="2.6131" stroke-linecap="round" stroke-linejoin="round"/>
<path d="M24.832 19.1836C24.457 19.1836 24.1523 18.875 24.1523 18.5" stroke="#333333" stroke-miterlimit="2.6131" stroke-linecap="round" stroke-linejoin="round"/>
<path d="M24.1523 18.5V17.4141" stroke="#333333" stroke-miterlimit="2.6131" stroke-linecap="round" stroke-linejoin="round"/>
<path d="M24.1523 17.4141C24.1523 17.0391 24.457 16.7344 24.832 16.7344" stroke="#333333" stroke-miterlimit="2.6131" stroke-linecap="round" stroke-linejoin="round"/>
<path d="M5.49609 23.0273H6.58203" stroke="#333333" stroke-miterlimit="2.6131" stroke-linecap="round" stroke-linejoin="round"/>
<path d="M6.58203 23.0273C6.95703 23.0273 7.26172 23.332 7.26172 23.707" stroke="#333333" stroke-miterlimit="2.6131" stroke-linecap="round" stroke-linejoin="round"/>
<path d="M7.26172 23.707V24.7969" stroke="#333333" stroke-miterlimit="2.6131" stroke-linecap="round" stroke-linejoin="round"/>
<path d="M7.26172 24.7969C7.26172 25.168 6.95703 25.4766 6.58203 25.4766" stroke="#333333" stroke-miterlimit="2.6131" stroke-linecap="round" stroke-linejoin="round"/>
<path d="M6.58203 25.4766H5.49609" stroke="#333333" stroke-miterlimit="2.6131" stroke-linecap="round" stroke-linejoin="round"/>
<path d="M5.49609 25.4766C5.12109 25.4766 4.81641 25.168 4.81641 24.7969" stroke="#333333" stroke-miterlimit="2.6131" stroke-linecap="round" stroke-linejoin="round"/>
<path d="M4.81641 24.7969V23.707" stroke="#333333" stroke-miterlimit="2.6131" stroke-linecap="round" stroke-linejoin="round"/>
<path d="M4.81641 23.707C4.81641 23.332 5.12109 23.0273 5.49609 23.0273" stroke="#333333" stroke-miterlimit="2.6131" stroke-linecap="round" stroke-linejoin="round"/>
<path d="M11.9414 23.0273H13.0273" stroke="#333333" stroke-miterlimit="2.6131" stroke-linecap="round" stroke-linejoin="round"/>
<path d="M13.0273 23.0273C13.4023 23.0273 13.707 23.332 13.707 23.707" stroke="#333333" stroke-miterlimit="2.6131" stroke-linecap="round" stroke-linejoin="round"/>
<path d="M13.707 23.707V24.7969" stroke="#333333" stroke-miterlimit="2.6131" stroke-linecap="round" stroke-linejoin="round"/>
<path d="M13.707 24.7969C13.707 25.168 13.4023 25.4766 13.0273 25.4766" stroke="#333333" stroke-miterlimit="2.6131" stroke-linecap="round" stroke-linejoin="round"/>
<path d="M13.0273 25.4766H11.9414" stroke="#333333" stroke-miterlimit="2.6131" stroke-linecap="round" stroke-linejoin="round"/>
<path d="M11.9414 25.4766C11.5664 25.4766 11.2578 25.168 11.2578 24.7969" stroke="#333333" stroke-miterlimit="2.6131" stroke-linecap="round" stroke-linejoin="round"/>
<path d="M11.2578 24.7969V23.707" stroke="#333333" stroke-miterlimit="2.6131" stroke-linecap="round" stroke-linejoin="round"/>
<path d="M11.2578 23.707C11.2578 23.332 11.5664 23.0273 11.9414 23.0273" stroke="#333333" stroke-miterlimit="2.6131" stroke-linecap="round" stroke-linejoin="round"/>
<path d="M18.3867 23.0273H19.4727" stroke="#333333" stroke-miterlimit="2.6131" stroke-linecap="round" stroke-linejoin="round"/>
<path d="M19.4727 23.0273C19.8477 23.0273 20.1523 23.332 20.1523 23.707" stroke="#333333" stroke-miterlimit="2.6131" stroke-linecap="round" stroke-linejoin="round"/>
<path d="M20.1523 23.707V24.7969" stroke="#333333" stroke-miterlimit="2.6131" stroke-linecap="round" stroke-linejoin="round"/>
<path d="M20.1523 24.7969C20.1523 25.168 19.8477 25.4766 19.4727 25.4766" stroke="#333333" stroke-miterlimit="2.6131" stroke-linecap="round" stroke-linejoin="round"/>
<path d="M19.4727 25.4766H18.3867" stroke="#333333" stroke-miterlimit="2.6131" stroke-linecap="round" stroke-linejoin="round"/>
<path d="M18.3867 25.4766C18.0117 25.4766 17.7031 25.168 17.7031 24.7969" stroke="#333333" stroke-miterlimit="2.6131" stroke-linecap="round" stroke-linejoin="round"/>
<path d="M17.7031 24.7969V23.707" stroke="#333333" stroke-miterlimit="2.6131" stroke-linecap="round" stroke-linejoin="round"/>
<path d="M17.7031 23.707C17.7031 23.332 18.0117 23.0273 18.3867 23.0273" stroke="#333333" stroke-miterlimit="2.6131" stroke-linecap="round" stroke-linejoin="round"/>
<path d="M11.5156 17.7812L12.4219 18.6133" stroke="#333333" stroke-miterlimit="2.6131" stroke-linecap="round" stroke-linejoin="round"/>
<path d="M14.0859 16.7969L12.4219 18.6133" stroke="#333333" stroke-miterlimit="2.6131" stroke-linecap="round" stroke-linejoin="round"/>
<path d="M24.5898 24.0742L25.4961 24.9023" stroke="#333333" stroke-miterlimit="2.6131" stroke-linecap="round" stroke-linejoin="round"/>
<path d="M27.1602 23.0898L25.4961 24.9023" stroke="#333333" stroke-miterlimit="2.6131" stroke-linecap="round" stroke-linejoin="round"/>
</svg>
