<svg width="32" height="32" viewBox="0 0 32 32" fill="none" xmlns="http://www.w3.org/2000/svg">
<path d="M12 27C13.1046 27 14 26.1046 14 25C14 23.8954 13.1046 23 12 23C10.8954 23 10 23.8954 10 25C10 26.1046 10.8954 27 12 27Z" stroke="white" stroke-linecap="round" stroke-linejoin="round"/>
<path d="M24 27C25.1046 27 26 26.1046 26 25C26 23.8954 25.1046 23 24 23C22.8954 23 22 23.8954 22 25C22 26.1046 22.8954 27 24 27Z" stroke="white" stroke-linecap="round" stroke-linejoin="round"/>
<path d="M9.67 10H27L25.32 18.39C25.2286 18.8504 24.9781 19.264 24.6125 19.5583C24.2468 19.8526 23.7893 20.009 23.32 20H12.75C12.2617 20.0041 11.7887 19.8295 11.4203 19.509C11.0519 19.1884 10.8135 18.7442 10.75 18.26L9.23 6.74C9.16697 6.25924 8.93142 5.81774 8.5672 5.49767C8.20298 5.17759 7.73488 5.00073 7.25 5H5" stroke="white" stroke-linecap="round" stroke-linejoin="round"/>
</svg>
