<svg width="32" height="32" viewBox="0 0 32 32" fill="none" xmlns="http://www.w3.org/2000/svg">
<path d="M23.9999 14.7803L19.5087 21.9307" stroke="white" stroke-miterlimit="2.6131" stroke-linecap="round" stroke-linejoin="round"/>
<path d="M19.5087 21.9307C18.9413 22.8262 18.2851 23.7627 17.3691 24.2891" stroke="white" stroke-miterlimit="2.6131" stroke-linecap="round" stroke-linejoin="round"/>
<path d="M17.3691 24.2891L11.2031 27.8643" stroke="white" stroke-miterlimit="2.6131" stroke-linecap="round" stroke-linejoin="round"/>
<path d="M11.2031 27.8643C8.85155 29.1973 7.7578 28.6436 8.04491 25.6358" stroke="white" stroke-miterlimit="2.6131" stroke-linecap="round" stroke-linejoin="round"/>
<path d="M8.04486 25.6358L8.67377 18.8545" stroke="white" stroke-miterlimit="2.6131" stroke-linecap="round" stroke-linejoin="round"/>
<path d="M8.67377 18.8545C8.77631 17.7608 9.20013 16.8242 9.62396 16.1543" stroke="white" stroke-miterlimit="2.6131" stroke-linecap="round" stroke-linejoin="round"/>
<path d="M9.62396 16.1543L17.458 4" stroke="white" stroke-miterlimit="2.6131" stroke-linecap="round" stroke-linejoin="round"/>
<path d="M12.6318 18.1777C13.247 17.2891 14.498 17.0498 15.4619 17.6377C16.4599 18.2393 16.788 19.4902 16.1933 20.4336" stroke="white" stroke-miterlimit="2.6131" stroke-linecap="round" stroke-linejoin="round"/>
<path d="M16.2343 20.4062C16.7197 19.7021 17.7109 19.5039 18.4833 19.9756C19.2763 20.4541 19.5361 21.4521 19.0644 22.2041" stroke="white" stroke-miterlimit="2.6131" stroke-linecap="round" stroke-linejoin="round"/>
<path d="M9.69916 16.4619C10.1913 15.7442 11.1962 15.5527 11.9687 16.0244C12.7685 16.5098 13.0351 17.5147 12.5634 18.2666" stroke="white" stroke-miterlimit="2.6131" stroke-linecap="round" stroke-linejoin="round"/>
<path d="M8.29779 22.8604C9.40521 23.0654 10.4648 23.4619 11.4287 24.043C12.2695 24.5557 13.0214 25.2051 13.6572 25.957" stroke="white" stroke-miterlimit="2.6131" stroke-linecap="round" stroke-linejoin="round"/>
</svg>
