<svg width="32" height="32" viewBox="0 0 32 32" fill="none" xmlns="http://www.w3.org/2000/svg">
<path d="M10.8 29C15.1078 29 18.6 25.5078 18.6 21.2C18.6 16.8922 15.1078 13.4 10.8 13.4C6.49218 13.4 3 16.8922 3 21.2C3 25.5078 6.49218 29 10.8 29Z" stroke="#333333" stroke-linejoin="round"/>
<path d="M21.2 29C25.5078 29 29 25.5078 29 21.2C29 16.8922 25.5078 13.4 21.2 13.4C16.8922 13.4 13.4 16.8922 13.4 21.2C13.4 25.5078 16.8922 29 21.2 29Z" stroke="#333333" stroke-linejoin="round"/>
<path d="M16 18.6C20.3078 18.6 23.8 15.1078 23.8 10.8C23.8 6.49218 20.3078 3 16 3C11.6922 3 8.20001 6.49218 8.20001 10.8C8.20001 15.1078 11.6922 18.6 16 18.6Z" stroke="#333333" stroke-linejoin="round"/>
</svg>
