<svg width="32" height="32" viewBox="0 0 32 32" fill="none" xmlns="http://www.w3.org/2000/svg">
<path d="M6.50391 8.59766L7.71875 27.582" stroke="#333333" stroke-miterlimit="2.6131" stroke-linecap="round" stroke-linejoin="round"/>
<path d="M7.71875 27.582C7.71875 28.2539 8.26563 28.8008 8.9375 28.8008" stroke="#333333" stroke-miterlimit="2.6131" stroke-linecap="round" stroke-linejoin="round"/>
<path d="M8.9375 28.8008H23.0664" stroke="#333333" stroke-miterlimit="2.6131" stroke-linecap="round" stroke-linejoin="round"/>
<path d="M23.0664 28.8008C23.7344 28.8008 24.2813 28.2539 24.2813 27.582" stroke="#333333" stroke-miterlimit="2.6131" stroke-linecap="round" stroke-linejoin="round"/>
<path d="M24.2813 27.582L25.4961 8.59766H6.50391" stroke="#333333" stroke-miterlimit="2.6131" stroke-linecap="round" stroke-linejoin="round"/>
<path d="M27.6992 7.42188C27.6992 8.06641 27.1758 8.58984 26.5352 8.58984" stroke="#333333" stroke-miterlimit="2.6131" stroke-linecap="round" stroke-linejoin="round"/>
<path d="M26.5352 8.58984H5.46484" stroke="#333333" stroke-miterlimit="2.6131" stroke-linecap="round" stroke-linejoin="round"/>
<path d="M5.46484 8.58984C4.82422 8.58984 4.30078 8.06641 4.30078 7.42188" stroke="#333333" stroke-miterlimit="2.6131" stroke-linecap="round" stroke-linejoin="round"/>
<path d="M4.30078 7.42188C4.30078 6.78125 4.82422 6.25781 5.46484 6.25781" stroke="#333333" stroke-miterlimit="2.6131" stroke-linecap="round" stroke-linejoin="round"/>
<path d="M5.46484 6.25781H26.5352" stroke="#333333" stroke-miterlimit="2.6131" stroke-linecap="round" stroke-linejoin="round"/>
<path d="M26.5352 6.25781C27.1758 6.25781 27.6992 6.78125 27.6992 7.42188" stroke="#333333" stroke-miterlimit="2.6131" stroke-linecap="round" stroke-linejoin="round"/>
<path d="M19.6719 6.23828V4.41406" stroke="#333333" stroke-miterlimit="2.6131" stroke-linecap="round" stroke-linejoin="round"/>
<path d="M19.6719 4.41406C19.6719 3.74609 19.1289 3.19922 18.457 3.19922" stroke="#333333" stroke-miterlimit="2.6131" stroke-linecap="round" stroke-linejoin="round"/>
<path d="M18.457 3.19922H13.543" stroke="#333333" stroke-miterlimit="2.6131" stroke-linecap="round" stroke-linejoin="round"/>
<path d="M13.543 3.19922C12.8711 3.19922 12.3281 3.74609 12.3281 4.41406" stroke="#333333" stroke-miterlimit="2.6131" stroke-linecap="round" stroke-linejoin="round"/>
<path d="M12.3281 4.41406V6.23828H19.6719" stroke="#333333" stroke-miterlimit="2.6131" stroke-linecap="round" stroke-linejoin="round"/>
<path d="M10.6445 11.0273V25.9883" stroke="#333333" stroke-miterlimit="2.6131" stroke-linecap="round" stroke-linejoin="round"/>
<path d="M14.2148 11.0273V25.9883" stroke="#333333" stroke-miterlimit="2.6131" stroke-linecap="round" stroke-linejoin="round"/>
<path d="M17.7891 11.0273V25.9883" stroke="#333333" stroke-miterlimit="2.6131" stroke-linecap="round" stroke-linejoin="round"/>
<path d="M21.3555 11.0273V25.9883" stroke="#333333" stroke-miterlimit="2.6131" stroke-linecap="round" stroke-linejoin="round"/>
</svg>
