<svg width="32" height="32" viewBox="0 0 32 32" fill="none" xmlns="http://www.w3.org/2000/svg">
<path d="M28 19.4727L25.4336 23.5586" stroke="white" stroke-miterlimit="2.6131" stroke-linecap="round" stroke-linejoin="round"/>
<path d="M25.4336 23.5586C25.1094 24.0703 24.7344 24.6055 24.2109 24.9063" stroke="white" stroke-miterlimit="2.6131" stroke-linecap="round" stroke-linejoin="round"/>
<path d="M24.2109 24.9062L20.6875 26.9492" stroke="white" stroke-miterlimit="2.6131" stroke-linecap="round" stroke-linejoin="round"/>
<path d="M20.6875 26.9492C19.3438 27.7109 18.7188 27.3945 18.8828 25.6758" stroke="white" stroke-miterlimit="2.6131" stroke-linecap="round" stroke-linejoin="round"/>
<path d="M18.8828 25.6758L19.2422 21.8008" stroke="white" stroke-miterlimit="2.6131" stroke-linecap="round" stroke-linejoin="round"/>
<path d="M19.2422 21.8008C19.3008 21.1758 19.543 20.6406 19.7852 20.2578" stroke="white" stroke-miterlimit="2.6131" stroke-linecap="round" stroke-linejoin="round"/>
<path d="M19.7852 20.2578L24.2617 13.3125" stroke="white" stroke-miterlimit="2.6131" stroke-linecap="round" stroke-linejoin="round"/>
<path d="M21.5039 21.414C21.8555 20.9062 22.5703 20.7695 23.1211 21.1055C23.6914 21.4492 23.8789 22.164 23.5391 22.7031" stroke="white" stroke-miterlimit="2.6131" stroke-linecap="round" stroke-linejoin="round"/>
<path d="M23.5625 22.6875C23.8398 22.2852 24.4063 22.1719 24.8477 22.4414C25.3008 22.7149 25.4492 23.2852 25.1797 23.7149" stroke="white" stroke-miterlimit="2.6131" stroke-linecap="round" stroke-linejoin="round"/>
<path d="M19.8281 20.4336C20.1094 20.0234 20.6836 19.9141 21.125 20.1836C21.582 20.4609 21.7344 21.0352 21.4648 21.4648" stroke="white" stroke-miterlimit="2.6131" stroke-linecap="round" stroke-linejoin="round"/>
<path d="M19.0273 24.0898C19.6602 24.207 20.2656 24.4336 20.8164 24.7656C21.2969 25.0586 21.7266 25.4297 22.0898 25.8594" stroke="white" stroke-miterlimit="2.6131" stroke-linecap="round" stroke-linejoin="round"/>
<path d="M27.7891 24.3477V28.5898" stroke="white" stroke-miterlimit="2.6131" stroke-linecap="round" stroke-linejoin="round"/>
<path d="M27.7891 28.5898C27.7891 29.582 26.9531 30.3984 25.9414 30.3984" stroke="white" stroke-miterlimit="2.6131" stroke-linecap="round" stroke-linejoin="round"/>
<path d="M25.9414 30.3984H5.83984" stroke="white" stroke-miterlimit="2.6131" stroke-linecap="round" stroke-linejoin="round"/>
<path d="M5.83984 30.3984C4.83203 30.3984 4 29.5859 4 28.5898" stroke="white" stroke-miterlimit="2.6131" stroke-linecap="round" stroke-linejoin="round"/>
<path d="M4 28.5898V8.84375L11.9727 1.60156H25.9414" stroke="white" stroke-miterlimit="2.6131" stroke-linecap="round" stroke-linejoin="round"/>
<path d="M25.9414 1.60156C26.957 1.60156 27.7891 2.41797 27.7891 3.41016" stroke="white" stroke-miterlimit="2.6131" stroke-linecap="round" stroke-linejoin="round"/>
<path d="M27.7891 3.41016V16.582" stroke="white" stroke-miterlimit="2.6131" stroke-linecap="round" stroke-linejoin="round"/>
<path d="M12.3359 1.60156V8.28125" stroke="white" stroke-miterlimit="2.6131" stroke-linecap="round" stroke-linejoin="round"/>
<path d="M12.3359 8.28125C12.3359 8.8125 11.8906 9.25 11.3555 9.25" stroke="white" stroke-miterlimit="2.6131" stroke-linecap="round" stroke-linejoin="round"/>
<path d="M11.3555 9.25H4" stroke="white" stroke-miterlimit="2.6131" stroke-linecap="round" stroke-linejoin="round"/>
<path d="M17.1406 4.67188H24.1094" stroke="white" stroke-miterlimit="2.6131" stroke-linecap="round" stroke-linejoin="round"/>
<path d="M24.1094 4.67188C24.3477 4.67188 24.543 4.88281 24.543 5.14063" stroke="white" stroke-miterlimit="2.6131" stroke-linecap="round" stroke-linejoin="round"/>
<path d="M24.543 5.14062V9.10938" stroke="white" stroke-miterlimit="2.6131" stroke-linecap="round" stroke-linejoin="round"/>
<path d="M24.543 9.10938C24.543 9.36719 24.3477 9.57813 24.1094 9.57813" stroke="white" stroke-miterlimit="2.6131" stroke-linecap="round" stroke-linejoin="round"/>
<path d="M24.1094 9.57812H17.1406" stroke="white" stroke-miterlimit="2.6131" stroke-linecap="round" stroke-linejoin="round"/>
<path d="M17.1406 9.57813C16.8984 9.57813 16.707 9.36719 16.707 9.10938" stroke="white" stroke-miterlimit="2.6131" stroke-linecap="round" stroke-linejoin="round"/>
<path d="M16.707 9.10938V5.14062" stroke="white" stroke-miterlimit="2.6131" stroke-linecap="round" stroke-linejoin="round"/>
<path d="M16.707 5.14063C16.707 4.88281 16.8984 4.67188 17.1406 4.67188" stroke="white" stroke-miterlimit="2.6131" stroke-linecap="round" stroke-linejoin="round"/>
<path d="M6.91016 13.7891H20.6055" stroke="white" stroke-miterlimit="2.6131" stroke-linecap="round" stroke-linejoin="round"/>
<path d="M6.91016 20.2344H16.1328" stroke="white" stroke-miterlimit="2.6131" stroke-linecap="round" stroke-linejoin="round"/>
<path d="M6.91016 26.6797H16.1328" stroke="white" stroke-miterlimit="2.6131" stroke-linecap="round" stroke-linejoin="round"/>
</svg>
