<svg width="32" height="32" viewBox="0 0 32 32" fill="none" xmlns="http://www.w3.org/2000/svg">
<path d="M27.9988 21.9211V8.27573C27.9988 8.06132 27.9564 7.84903 27.874 7.65108C27.7916 7.45313 27.6709 7.27342 27.5188 7.12232C27.3667 6.97121 27.1862 6.85169 26.9877 6.77063C26.7892 6.68957 26.5766 6.64857 26.3622 6.65H5.63952C5.20834 6.65 4.79483 6.82128 4.48995 7.12617C4.18506 7.43105 4.01378 7.84456 4.01378 8.27573V21.9211C3.65759 22.113 3.376 22.4188 3.21397 22.7896C3.05193 23.1603 3.01881 23.5747 3.11987 23.9665C3.22094 24.3583 3.45038 24.7049 3.77154 24.951C4.09271 25.1971 4.48708 25.3285 4.89168 25.3243H27.11C27.5156 25.331 27.9117 25.2014 28.2347 24.9562C28.5578 24.7109 28.7891 24.3643 28.8916 23.9719C28.9941 23.5794 28.9618 23.1639 28.7999 22.792C28.638 22.4201 28.3559 22.1134 27.9988 21.9211ZM5.0976 8.27573C5.0976 8.13201 5.1547 7.99417 5.25633 7.89254C5.35795 7.79092 5.49579 7.73382 5.63952 7.73382H26.3622C26.5059 7.73382 26.6438 7.79092 26.7454 7.89254C26.847 7.99417 26.9041 8.13201 26.9041 8.27573V21.6934H5.0976V8.27573ZM27.11 24.2404H18.4395C18.5094 24.1917 18.5666 24.1269 18.6062 24.0515C18.6458 23.976 18.6667 23.8921 18.6671 23.8069C18.6671 23.6632 18.61 23.5253 18.5083 23.4237C18.4067 23.3221 18.2689 23.265 18.1251 23.265H13.7899C13.6461 23.265 13.5083 23.3221 13.4067 23.4237C13.305 23.5253 13.2479 23.6632 13.2479 23.8069C13.2483 23.8921 13.2692 23.976 13.3088 24.0515C13.3484 24.1269 13.4056 24.1917 13.4756 24.2404H4.80497C4.70142 24.2531 4.59638 24.2436 4.49677 24.2126C4.39717 24.1816 4.30528 24.1298 4.22718 24.0606C4.14908 23.9915 4.08656 23.9065 4.04373 23.8114C4.00091 23.7163 3.97876 23.6132 3.97876 23.5089C3.97876 23.4045 4.00091 23.3014 4.04373 23.2063C4.08656 23.1112 4.14908 23.0262 4.22718 22.9571C4.30528 22.8879 4.39717 22.8361 4.49677 22.8051C4.59638 22.7741 4.70142 22.7646 4.80497 22.7773H27.11C27.2136 22.7646 27.3186 22.7741 27.4182 22.8051C27.5178 22.8361 27.6097 22.8879 27.6878 22.9571C27.7659 23.0262 27.8285 23.1112 27.8713 23.2063C27.9141 23.3014 27.9362 23.4045 27.9362 23.5089C27.9362 23.6132 27.9141 23.7163 27.8713 23.8114C27.8285 23.9065 27.7659 23.9915 27.6878 24.0606C27.6097 24.1298 27.5178 24.1816 27.4182 24.2126C27.3186 24.2436 27.2136 24.2531 27.11 24.2404Z" fill="#222222"/>
</svg>
