<svg width="32" height="32" viewBox="0 0 32 32" fill="none" xmlns="http://www.w3.org/2000/svg">
<path d="M26.207 23.5039C26.207 24.6133 25.3086 25.5117 24.1992 25.5117" stroke="#2487E2" stroke-miterlimit="2.6131" stroke-linecap="round" stroke-linejoin="round"/>
<path d="M24.1992 25.5117H7.80078" stroke="#2487E2" stroke-miterlimit="2.6131" stroke-linecap="round" stroke-linejoin="round"/>
<path d="M7.80078 25.5117C6.69141 25.5117 5.79297 24.6133 5.79297 23.5039" stroke="#2487E2" stroke-miterlimit="2.6131" stroke-linecap="round" stroke-linejoin="round"/>
<path d="M5.79297 23.5039C5.79297 22.3945 6.69141 21.4961 7.80078 21.4961" stroke="#2487E2" stroke-miterlimit="2.6131" stroke-linecap="round" stroke-linejoin="round"/>
<path d="M7.80078 21.4961H24.1992" stroke="#2487E2" stroke-miterlimit="2.6131" stroke-linecap="round" stroke-linejoin="round"/>
<path d="M24.1992 21.4961C25.3086 21.4961 26.207 22.3945 26.207 23.5039" stroke="#2487E2" stroke-miterlimit="2.6131" stroke-linecap="round" stroke-linejoin="round"/>
<path d="M23.1016 11.5547C23.1016 5.82812 19.6055 3.17578 16.0312 3.20312" stroke="#2487E2" stroke-miterlimit="2.6131" stroke-linecap="round" stroke-linejoin="round"/>
<path d="M16.0312 3.20313V3.19922" stroke="#2487E2" stroke-miterlimit="2.6131" stroke-linecap="round" stroke-linejoin="round"/>
<path d="M16.0313 3.19922C16.0195 3.19922 16.0117 3.20313 16 3.20313C15.9883 3.20313 15.9766 3.19922 15.9688 3.19922" stroke="#2487E2" stroke-miterlimit="2.6131" stroke-linecap="round" stroke-linejoin="round"/>
<path d="M15.9688 3.19922V3.20313" stroke="#2487E2" stroke-miterlimit="2.6131" stroke-linecap="round" stroke-linejoin="round"/>
<path d="M15.9688 3.20312C12.3945 3.17578 8.89844 5.82812 8.89844 11.5547C9.08984 19.2656 7.91016 21.4961 7.91016 21.4961" stroke="#2487E2" stroke-miterlimit="2.6131" stroke-linecap="round" stroke-linejoin="round"/>
<path d="M7.91016 21.4961H24.0898" stroke="#2487E2" stroke-miterlimit="2.6131" stroke-linecap="round" stroke-linejoin="round"/>
<path d="M24.0899 21.4961C24.0899 21.4961 22.9102 19.2656 23.1016 11.5547" stroke="#2487E2" stroke-miterlimit="2.6131" stroke-linecap="round" stroke-linejoin="round"/>
<path d="M13.9336 25.5781C13.8008 25.8672 13.7227 26.1836 13.7227 26.5234C13.7227 27.7813 14.7422 28.8008 16 28.8008C17.2578 28.8008 18.2773 27.7813 18.2773 26.5234C18.2773 26.1836 18.1992 25.8672 18.0664 25.5781" stroke="#2487E2" stroke-miterlimit="2.6131" stroke-linecap="round" stroke-linejoin="round"/>
<path d="M18.0664 25.5781H13.9336" stroke="#2487E2" stroke-miterlimit="2.6131" stroke-linecap="round" stroke-linejoin="round"/>
</svg>
