<svg width="32" height="32" viewBox="0 0 32 32" fill="none" xmlns="http://www.w3.org/2000/svg">
<path d="M13.2695 12.5352C13.2695 12.875 12.9922 13.1523 12.6523 13.1523" stroke="white" stroke-miterlimit="2.6131" stroke-linecap="round" stroke-linejoin="round"/>
<path d="M12.6523 13.1523H5.41797" stroke="white" stroke-miterlimit="2.6131" stroke-linecap="round" stroke-linejoin="round"/>
<path d="M5.41797 13.1523C5.07812 13.1523 4.80078 12.875 4.80078 12.5352" stroke="white" stroke-miterlimit="2.6131" stroke-linecap="round" stroke-linejoin="round"/>
<path d="M4.80078 12.5352V5.30469" stroke="white" stroke-miterlimit="2.6131" stroke-linecap="round" stroke-linejoin="round"/>
<path d="M4.80078 5.30469C4.80078 4.96094 5.07812 4.68359 5.41797 4.68359" stroke="white" stroke-miterlimit="2.6131" stroke-linecap="round" stroke-linejoin="round"/>
<path d="M5.41797 4.68359H12.6523" stroke="white" stroke-miterlimit="2.6131" stroke-linecap="round" stroke-linejoin="round"/>
<path d="M12.6523 4.68359C12.9922 4.68359 13.2695 4.96094 13.2695 5.30469" stroke="white" stroke-miterlimit="2.6131" stroke-linecap="round" stroke-linejoin="round"/>
<path d="M13.2695 5.30469V12.5352" stroke="white" stroke-miterlimit="2.6131" stroke-linecap="round" stroke-linejoin="round"/>
<path d="M13.2695 26.6992C13.2695 27.043 12.9922 27.3164 12.6523 27.3164" stroke="white" stroke-miterlimit="2.6131" stroke-linecap="round" stroke-linejoin="round"/>
<path d="M12.6523 27.3164H5.41797" stroke="white" stroke-miterlimit="2.6131" stroke-linecap="round" stroke-linejoin="round"/>
<path d="M5.41797 27.3164C5.07812 27.3164 4.80078 27.043 4.80078 26.6992" stroke="white" stroke-miterlimit="2.6131" stroke-linecap="round" stroke-linejoin="round"/>
<path d="M4.80078 26.6992V19.4727" stroke="white" stroke-miterlimit="2.6131" stroke-linecap="round" stroke-linejoin="round"/>
<path d="M4.80078 19.4727C4.80078 19.1289 5.07812 18.8516 5.41797 18.8516" stroke="white" stroke-miterlimit="2.6131" stroke-linecap="round" stroke-linejoin="round"/>
<path d="M5.41797 18.8516H12.6523" stroke="white" stroke-miterlimit="2.6131" stroke-linecap="round" stroke-linejoin="round"/>
<path d="M12.6523 18.8516C12.9922 18.8516 13.2695 19.1289 13.2695 19.4727" stroke="white" stroke-miterlimit="2.6131" stroke-linecap="round" stroke-linejoin="round"/>
<path d="M13.2695 19.4727V26.6992" stroke="white" stroke-miterlimit="2.6131" stroke-linecap="round" stroke-linejoin="round"/>
<path d="M27.1992 12.5352C27.1992 12.875 26.9258 13.1523 26.582 13.1523" stroke="white" stroke-miterlimit="2.6131" stroke-linecap="round" stroke-linejoin="round"/>
<path d="M26.582 13.1523H19.3477" stroke="white" stroke-miterlimit="2.6131" stroke-linecap="round" stroke-linejoin="round"/>
<path d="M19.3477 13.1523C19.0078 13.1523 18.7305 12.875 18.7305 12.5352" stroke="white" stroke-miterlimit="2.6131" stroke-linecap="round" stroke-linejoin="round"/>
<path d="M18.7305 12.5352V5.30469" stroke="white" stroke-miterlimit="2.6131" stroke-linecap="round" stroke-linejoin="round"/>
<path d="M18.7305 5.30469C18.7305 4.96094 19.0078 4.68359 19.3477 4.68359" stroke="white" stroke-miterlimit="2.6131" stroke-linecap="round" stroke-linejoin="round"/>
<path d="M19.3477 4.68359H26.582" stroke="white" stroke-miterlimit="2.6131" stroke-linecap="round" stroke-linejoin="round"/>
<path d="M26.582 4.68359C26.9219 4.68359 27.1992 4.96094 27.1992 5.30469" stroke="white" stroke-miterlimit="2.6131" stroke-linecap="round" stroke-linejoin="round"/>
<path d="M27.1992 5.30469V12.5352" stroke="white" stroke-miterlimit="2.6131" stroke-linecap="round" stroke-linejoin="round"/>
<path d="M27.1992 26.6992C27.1992 27.043 26.9258 27.3164 26.582 27.3164" stroke="white" stroke-miterlimit="2.6131" stroke-linecap="round" stroke-linejoin="round"/>
<path d="M26.582 27.3164H19.3477" stroke="white" stroke-miterlimit="2.6131" stroke-linecap="round" stroke-linejoin="round"/>
<path d="M19.3477 27.3164C19.0078 27.3164 18.7305 27.043 18.7305 26.6992" stroke="white" stroke-miterlimit="2.6131" stroke-linecap="round" stroke-linejoin="round"/>
<path d="M18.7305 26.6992V19.4727" stroke="white" stroke-miterlimit="2.6131" stroke-linecap="round" stroke-linejoin="round"/>
<path d="M18.7305 19.4727C18.7305 19.1289 19.0078 18.8516 19.3477 18.8516" stroke="white" stroke-miterlimit="2.6131" stroke-linecap="round" stroke-linejoin="round"/>
<path d="M19.3477 18.8516H26.582" stroke="white" stroke-miterlimit="2.6131" stroke-linecap="round" stroke-linejoin="round"/>
<path d="M26.582 18.8516C26.9219 18.8516 27.1992 19.1289 27.1992 19.4727" stroke="white" stroke-miterlimit="2.6131" stroke-linecap="round" stroke-linejoin="round"/>
<path d="M27.1992 19.4727V26.6992" stroke="white" stroke-miterlimit="2.6131" stroke-linecap="round" stroke-linejoin="round"/>
</svg>
