<svg width="32" height="32" viewBox="0 0 32 32" fill="none" xmlns="http://www.w3.org/2000/svg">
<path d="M13.9644 6.42769C13.6297 6.49971 13.2992 6.58868 12.9773 6.69035L12.7231 6.254C12.4731 5.8134 11.9054 5.66089 11.4649 5.91508L9.53726 7.02927C9.09667 7.28346 8.94416 7.85115 9.19834 8.29174L9.4483 8.73233C9.19834 8.95687 8.95687 9.19834 8.7281 9.45253L8.2875 9.19834C7.85115 8.94416 7.28346 9.09667 7.02927 9.53303L5.91508 11.4649C5.66089 11.9054 5.8134 12.4731 6.24976 12.7273L6.69035 12.9773C6.58444 13.2992 6.49971 13.6297 6.42769 13.9644H5.91931C5.41517 13.9644 5 14.3795 5 14.8837V17.1163C5 17.6205 5.41517 18.0356 5.91931 18.0356H6.42769C6.49971 18.3703 6.58868 18.7008 6.69035 19.0227L6.254 19.2769C5.8134 19.5269 5.66089 20.0946 5.91508 20.5351L7.02927 22.4627C7.28346 22.9033 7.85115 23.0558 8.29174 22.8017L8.7281 22.5475C8.95687 22.8017 9.19834 23.0431 9.4483 23.2677L9.19834 23.7083C8.94416 24.1489 9.09667 24.7165 9.53726 24.9707L11.4649 26.0849C11.9054 26.3391 12.4731 26.1866 12.7231 25.746L12.9773 25.3096C13.2992 25.4156 13.6297 25.5003 13.9644 25.5723V26.0764C13.9644 26.5848 14.3795 27 14.8879 27H17.1163C17.6247 27 18.0399 26.5848 18.0399 26.0764V25.5723C18.3745 25.5003 18.7008 25.4113 19.0227 25.3096L19.2769 25.746C19.5269 26.1866 20.0946 26.3391 20.5351 26.0849L22.467 24.9707C22.9076 24.7165 23.0558 24.1489 22.8059 23.7083L22.5517 23.2677C22.8017 23.0431 23.0431 22.8017 23.2677 22.5517L23.7083 22.8059C24.1489 23.0558 24.7165 22.9076 24.9707 22.467L26.0849 20.5351C26.3391 20.0946 26.1866 19.5269 25.746 19.2769L25.3096 19.0227C25.4113 18.7008 25.5003 18.3703 25.5723 18.0356H26.0807C26.5848 18.0356 27 17.6205 27 17.1121V14.8837C27 14.3795 26.5848 13.9601 26.0807 13.9601H25.5723C25.5003 13.6255 25.4113 13.2992 25.3096 12.9773L25.746 12.7231C26.1866 12.4689 26.3391 11.9012 26.0849 11.4649L24.9707 9.53303C24.7165 9.09667 24.1489 8.94416 23.7083 9.19834L23.2719 9.45253C23.0431 9.19834 22.8017 8.95687 22.5517 8.73233L22.8059 8.29174C23.0558 7.85115 22.9076 7.28346 22.467 7.02927L20.5351 5.91508C20.0946 5.66089 19.5269 5.8134 19.2769 6.254L19.0227 6.69035C18.7008 6.58444 18.3703 6.49971 18.0356 6.42769V5.91931C18.0356 5.41517 17.6205 5 17.1121 5H14.8879C14.3795 5 13.9644 5.41517 13.9644 5.91931V6.42769ZM15.9979 22.6322C12.3376 22.6322 9.3678 19.6624 9.3678 15.9979C9.3678 12.3376 12.3376 9.3678 15.9979 9.3678C19.6624 9.3678 22.6322 12.3376 22.6322 15.9979C22.6322 19.6624 19.6624 22.6322 15.9979 22.6322Z" stroke="#2487E2" stroke-miterlimit="2.6131" stroke-linecap="round" stroke-linejoin="round"/>
</svg>
