<svg width="32" height="32" viewBox="0 0 32 32" fill="none" xmlns="http://www.w3.org/2000/svg">
<path d="M30.0273 7.64842L28.9453 7.46483C28.9141 6.9453 28.7969 6.4492 28.6094 5.98436L29.5039 5.35155C29.6953 5.21483 29.7734 4.99999 29.6836 4.87108L28.7773 3.59374C28.6875 3.46483 28.457 3.46874 28.2656 3.60545L27.3711 4.23827C26.9922 3.90624 26.5625 3.6328 26.0859 3.43358L26.2695 2.35155C26.3086 2.12108 26.2148 1.91405 26.0586 1.8867L24.5156 1.62499C24.3594 1.59764 24.1992 1.7617 24.1601 1.99217L23.9766 3.0742C23.4609 3.10545 22.9648 3.22264 22.4961 3.41014L21.8633 2.51561C21.7266 2.32811 21.5117 2.24608 21.3828 2.33983L20.1094 3.24217C19.9766 3.33592 19.9844 3.56639 20.1172 3.75389L20.75 4.65233C20.418 5.02733 20.1445 5.45702 19.9453 5.93358L18.8633 5.74999C18.6328 5.71092 18.4258 5.80858 18.3984 5.96483L18.1367 7.50389C18.1094 7.66014 18.2773 7.8203 18.5078 7.85936L19.5859 8.04295C19.6172 8.55858 19.7344 9.05858 19.9219 9.52342L19.0312 10.1601C18.8398 10.293 18.7578 10.5078 18.8516 10.6367L19.7578 11.914C19.8476 12.043 20.0781 12.039 20.2695 11.9023L21.1641 11.2695C21.5391 11.6015 21.9687 11.875 22.4492 12.0781L22.2617 13.1562C22.2266 13.3867 22.3203 13.5937 22.4766 13.6211L24.0195 13.8828C24.1758 13.9101 24.3359 13.7461 24.375 13.5156L24.5547 12.4336C25.0742 12.4023 25.5703 12.2851 26.0351 12.0937L26.6719 12.9922C26.8047 13.1797 27.0195 13.2617 27.1484 13.168L28.4258 12.2656C28.5547 12.1719 28.5508 11.9414 28.4141 11.75L27.7812 10.8594C28.1133 10.4805 28.3906 10.0508 28.5898 9.5742L29.6719 9.7578C29.9023 9.79686 30.1094 9.6992 30.1367 9.54295L30.3984 7.99999C30.4219 7.84374 30.2578 7.68749 30.0273 7.64842ZM23.7461 10.8086C22.0625 10.5195 20.9258 8.92186 21.2148 7.23436C21.5 5.55077 23.0976 4.41405 24.7851 4.6992C26.4726 4.98827 27.6055 6.58592 27.3203 8.27342C27.0351 9.96092 25.4336 11.0937 23.7461 10.8086Z" stroke="white" stroke-miterlimit="2.6131" stroke-linecap="round" stroke-linejoin="round"/>
<path d="M9.86719 11.4102C9.55859 11.4766 9.25391 11.5586 8.95703 11.6523L8.72266 11.25C8.49219 10.8438 7.96875 10.7031 7.5625 10.9375L5.78516 11.9648C5.37891 12.1992 5.23828 12.7227 5.47266 13.1289L5.70313 13.5352C5.47266 13.7422 5.25 13.9648 5.03906 14.1992L4.63281 13.9648C4.23047 13.7305 3.70703 13.8711 3.47266 14.2734L2.44531 16.0547C2.21094 16.4609 2.35156 16.9844 2.75391 17.2188L3.16016 17.4492C3.0625 17.7461 2.98438 18.0508 2.91797 18.3594H2.44922C1.98437 18.3594 1.60156 18.7422 1.60156 19.207V21.2656C1.60156 21.7305 1.98437 22.1133 2.44922 22.1133H2.91797C2.98438 22.4219 3.06641 22.7266 3.16016 23.0234L2.75781 23.2578C2.35156 23.4883 2.21094 24.0117 2.44531 24.418L3.47266 26.1953C3.70703 26.6016 4.23047 26.7422 4.63672 26.5078L5.03906 26.2734C5.25 26.5078 5.47266 26.7305 5.70313 26.9375L5.47266 27.3438C5.23828 27.75 5.37891 28.2734 5.78516 28.5078L7.5625 29.5352C7.96875 29.7695 8.49219 29.6289 8.72266 29.2227L8.95703 28.8203C9.25391 28.918 9.55859 28.9961 9.86719 29.0625V29.5273C9.86719 29.9961 10.25 30.3789 10.7188 30.3789H12.7734C13.2422 30.3789 13.625 29.9961 13.625 29.5273V29.0625C13.9336 28.9961 14.2344 28.9141 14.5313 28.8203L14.7656 29.2227C14.9961 29.6289 15.5195 29.7695 15.9258 29.5352L17.707 28.5078C18.1133 28.2734 18.25 27.75 18.0195 27.3438L17.7852 26.9375C18.0156 26.7305 18.2383 26.5078 18.4453 26.2773L18.8516 26.5117C19.2578 26.7422 19.7813 26.6055 20.0156 26.1992L21.043 24.418C21.2773 24.0117 21.1367 23.4883 20.7305 23.2578L20.3281 23.0234C20.4219 22.7266 20.5039 22.4219 20.5703 22.1133H21.0391C21.5039 22.1133 21.8867 21.7305 21.8867 21.2617V19.207C21.8867 18.7422 21.5039 18.3555 21.0391 18.3555H20.5703C20.5039 18.0469 20.4219 17.7461 20.3281 17.4492L20.7305 17.2148C21.1367 16.9805 21.2773 16.457 21.043 16.0547L20.0156 14.2734C19.7813 13.8711 19.2578 13.7305 18.8516 13.9648L18.4492 14.1992C18.2383 13.9648 18.0156 13.7422 17.7852 13.5352L18.0195 13.1289C18.25 12.7227 18.1133 12.1992 17.707 11.9648L15.9258 10.9375C15.5195 10.7031 14.9961 10.8438 14.7656 11.25L14.5313 11.6523C14.2344 11.5547 13.9297 11.4766 13.6211 11.4102V10.9414C13.6211 10.4766 13.2383 10.0938 12.7695 10.0938H10.7188C10.25 10.0938 9.86719 10.4766 9.86719 10.9414V11.4102ZM11.7422 26.3516C8.36719 26.3516 5.62891 23.6133 5.62891 20.2344C5.62891 16.8594 8.36719 14.1211 11.7422 14.1211C15.1211 14.1211 17.8594 16.8594 17.8594 20.2344C17.8594 23.6133 15.1211 26.3516 11.7422 26.3516Z" stroke="white" stroke-miterlimit="2.6131" stroke-linecap="round" stroke-linejoin="round"/>
</svg>
